<svg width="91" height="74" viewBox="0 0 91 74" fill="none" xmlns="http://www.w3.org/2000/svg">
<g filter="url(#filter0_i_502_1391)">
<path d="M45.0427 0L87.939 16.087L84.0976 19.3043L87.939 31.1014L85.378 40.2174L87.939 45.5797L85.378 49.8696L90.5 55.7681L86.6585 59.5217L85.378 63.2754L63.3791 71.1898V64.5658L36.465 74V67.1752H14.132L22.7216 46.7009L0 33.2464L20 25.7391L8.5 8.04348L46.1999 13.38L45.0427 0Z" fill="#A81616"/>
</g>
<g filter="url(#filter1_i_502_1391)">
<path d="M46.9636 2.1449L84.0978 16.128L81.5368 18.2319L86.1293 31.6377L84.0978 41.2898L86.1293 45.4822L85.0757 49.8695L89.2197 55.2318L82.8173 61.4879L64.97 67.0557V61.2202L41.0463 69.5314V63.5191H21.1948L28.83 45.4822L5.5 33.7826L22.7218 26.7379L12.5416 11.1767L49.6996 16.128L46.9636 2.1449Z" fill="#F0732C"/>
</g>
<defs>
<filter id="filter0_i_502_1391" x="0" y="0" width="90.5" height="78" filterUnits="userSpaceOnUse" color-interpolation-filters="sRGB">
<feFlood flood-opacity="0" result="BackgroundImageFix"/>
<feBlend mode="normal" in="SourceGraphic" in2="BackgroundImageFix" result="shape"/>
<feColorMatrix in="SourceAlpha" type="matrix" values="0 0 0 0 0 0 0 0 0 0 0 0 0 0 0 0 0 0 127 0" result="hardAlpha"/>
<feOffset dy="4"/>
<feGaussianBlur stdDeviation="2"/>
<feComposite in2="hardAlpha" operator="arithmetic" k2="-1" k3="1"/>
<feColorMatrix type="matrix" values="0 0 0 0 0 0 0 0 0 0 0 0 0 0 0 0 0 0 0.25 0"/>
<feBlend mode="normal" in2="shape" result="effect1_innerShadow_502_1391"/>
</filter>
<filter id="filter1_i_502_1391" x="5.5" y="2.1449" width="83.7197" height="71.3865" filterUnits="userSpaceOnUse" color-interpolation-filters="sRGB">
<feFlood flood-opacity="0" result="BackgroundImageFix"/>
<feBlend mode="normal" in="SourceGraphic" in2="BackgroundImageFix" result="shape"/>
<feColorMatrix in="SourceAlpha" type="matrix" values="0 0 0 0 0 0 0 0 0 0 0 0 0 0 0 0 0 0 127 0" result="hardAlpha"/>
<feOffset dy="4"/>
<feGaussianBlur stdDeviation="2"/>
<feComposite in2="hardAlpha" operator="arithmetic" k2="-1" k3="1"/>
<feColorMatrix type="matrix" values="0 0 0 0 0 0 0 0 0 0 0 0 0 0 0 0 0 0 0.25 0"/>
<feBlend mode="normal" in2="shape" result="effect1_innerShadow_502_1391"/>
</filter>
</defs>
</svg>
