<svg width="91" height="74" viewBox="0 0 91 74" fill="none" xmlns="http://www.w3.org/2000/svg">
<g filter="url(#filter0_i_502_1388)">
<path d="M45.4573 0L2.56098 16.087L6.40244 19.3043L2.56098 31.1014L5.12195 40.2174L2.56098 45.5797L5.12195 49.8696L0 55.7681L3.84146 59.5217L5.12195 63.2754L27.1209 71.1898V64.5658L54.035 74V67.1752H76.368L67.7784 46.7009L90.5 33.2464L70.5 25.7391L82 8.04348L44.3001 13.38L45.4573 0Z" fill="#A81616"/>
</g>
<g filter="url(#filter1_i_502_1388)">
<path d="M43.5364 2.1449L6.40222 16.128L8.9632 18.2319L4.37072 31.6377L6.40222 41.2898L4.37072 45.4822L5.42428 49.8695L1.28027 55.2318L7.68271 61.4879L25.53 67.0557V61.2202L49.4537 69.5314V63.5191H69.3052L61.67 45.4822L85 33.7826L67.7782 26.7379L77.9584 11.1767L40.8004 16.128L43.5364 2.1449Z" fill="#F0732C"/>
</g>
<defs>
<filter id="filter0_i_502_1388" x="0" y="0" width="90.5" height="78" filterUnits="userSpaceOnUse" color-interpolation-filters="sRGB">
<feFlood flood-opacity="0" result="BackgroundImageFix"/>
<feBlend mode="normal" in="SourceGraphic" in2="BackgroundImageFix" result="shape"/>
<feColorMatrix in="SourceAlpha" type="matrix" values="0 0 0 0 0 0 0 0 0 0 0 0 0 0 0 0 0 0 127 0" result="hardAlpha"/>
<feOffset dy="4"/>
<feGaussianBlur stdDeviation="2"/>
<feComposite in2="hardAlpha" operator="arithmetic" k2="-1" k3="1"/>
<feColorMatrix type="matrix" values="0 0 0 0 0 0 0 0 0 0 0 0 0 0 0 0 0 0 0.25 0"/>
<feBlend mode="normal" in2="shape" result="effect1_innerShadow_502_1388"/>
</filter>
<filter id="filter1_i_502_1388" x="1.28027" y="2.1449" width="83.7197" height="71.3865" filterUnits="userSpaceOnUse" color-interpolation-filters="sRGB">
<feFlood flood-opacity="0" result="BackgroundImageFix"/>
<feBlend mode="normal" in="SourceGraphic" in2="BackgroundImageFix" result="shape"/>
<feColorMatrix in="SourceAlpha" type="matrix" values="0 0 0 0 0 0 0 0 0 0 0 0 0 0 0 0 0 0 127 0" result="hardAlpha"/>
<feOffset dy="4"/>
<feGaussianBlur stdDeviation="2"/>
<feComposite in2="hardAlpha" operator="arithmetic" k2="-1" k3="1"/>
<feColorMatrix type="matrix" values="0 0 0 0 0 0 0 0 0 0 0 0 0 0 0 0 0 0 0.25 0"/>
<feBlend mode="normal" in2="shape" result="effect1_innerShadow_502_1388"/>
</filter>
</defs>
</svg>
