<svg width="24" height="19" viewBox="0 0 24 19" fill="none" xmlns="http://www.w3.org/2000/svg">
<path d="M4.79433 5.46521L3.5635 6.16408L3.42871 6.00474C3.69588 5.53046 3.9987 5.08162 4.33403 4.66291C5.47077 3.44967 6.56176 2.14697 7.84092 1.1406C8.66487 0.49764 9.78891 -0.00274732 10.7756 4.81588e-05C12.6176 -0.00395064 14.4531 0.241092 16.2407 0.729665C17.9267 1.2049 19.0151 2.74242 19.9205 4.34143C20.396 5.18008 20.48 6.11096 20.5384 7.09497C20.6529 9.02945 20.4901 10.9527 19.745 12.6412C18.9821 14.394 18.2929 16.3061 16.7594 17.5333C16.5934 17.6373 16.4178 17.7217 16.2356 17.7849L16.1898 17.1112C16.1898 17.0385 16.1898 16.963 16.1669 16.8316C15.7066 17.2649 15.2921 17.6898 14.8394 18.0589C14.6337 18.1756 14.4121 18.255 14.1833 18.2937C14.0957 18.0761 14.0432 17.8434 14.0282 17.606C14.0879 17.2031 14.1729 16.8052 14.2825 16.4151C13.2881 17.0441 12.393 17.7374 11.4114 18.2098C9.73042 19.0177 8.18424 18.618 6.77284 17.3432C4.1128 14.9447 3.26594 11.8529 3.89153 8.23274C4.05938 7.30464 4.47137 6.44922 4.79433 5.46521Z" fill="#2D809A"/>
</svg>