<svg width="45" height="45" viewBox="0 0 45 45" fill="none" xmlns="http://www.w3.org/2000/svg">
<g clip-path="url(#clip0_1084_14610)">
<g clip-path="url(#clip1_1084_14610)">
<path fill-rule="evenodd" clip-rule="evenodd" d="M0 10.5469C0 9.98743 0.222237 9.45091 0.617822 9.05532C1.01341 8.65974 1.54993 8.4375 2.10938 8.4375H42.8906C43.4501 8.4375 43.9866 8.65974 44.3822 9.05532C44.7778 9.45091 45 9.98743 45 10.5469C45 11.1063 44.7778 11.6428 44.3822 12.0384C43.9866 12.434 43.4501 12.6562 42.8906 12.6562H2.10938C1.54993 12.6562 1.01341 12.434 0.617822 12.0384C0.222237 11.6428 0 11.1063 0 10.5469H0ZM0 22.5C0 21.9406 0.222237 21.404 0.617822 21.0084C1.01341 20.6129 1.54993 20.3906 2.10938 20.3906H42.8906C43.4501 20.3906 43.9866 20.6129 44.3822 21.0084C44.7778 21.404 45 21.9406 45 22.5C45 23.0594 44.7778 23.596 44.3822 23.9916C43.9866 24.3871 43.4501 24.6094 42.8906 24.6094H2.10938C1.54993 24.6094 1.01341 24.3871 0.617822 23.9916C0.222237 23.596 0 23.0594 0 22.5H0ZM2.10938 32.3438C1.54993 32.3438 1.01341 32.566 0.617822 32.9616C0.222237 33.3572 0 33.8937 0 34.4531C0 35.0126 0.222237 35.5491 0.617822 35.9447C1.01341 36.3403 1.54993 36.5625 2.10938 36.5625H42.8906C43.4501 36.5625 43.9866 36.3403 44.3822 35.9447C44.7778 35.5491 45 35.0126 45 34.4531C45 33.8937 44.7778 33.3572 44.3822 32.9616C43.9866 32.566 43.4501 32.3438 42.8906 32.3438H2.10938Z" fill="#C9C9C9"/>
</g>
</g>
<defs>
<clipPath id="clip0_1084_14610">
<rect width="45" height="45" fill="white"/>
</clipPath>
<clipPath id="clip1_1084_14610">
<rect width="45" height="45" fill="white"/>
</clipPath>
</defs>
</svg>
