<svg width="55" height="73" viewBox="0 0 55 73" fill="none" xmlns="http://www.w3.org/2000/svg">
<g clip-path="url(#clip0_114_151)">
<path d="M27.4999 6.84375C27.4999 5.02867 28.2242 3.28794 29.5136 2.00449C30.8029 0.721036 32.5516 0 34.3749 0C36.1983 0 37.947 0.721036 39.2363 2.00449C40.5256 3.28794 41.2499 5.02867 41.2499 6.84375C41.2499 8.65883 40.5256 10.3996 39.2363 11.683C37.947 12.9665 36.1983 13.6875 34.3749 13.6875C32.5516 13.6875 30.8029 12.9665 29.5136 11.683C28.2242 10.3996 27.4999 8.65883 27.4999 6.84375ZM34.8476 32.8928L32.1119 43.7715L39.2304 50.8576C40.5194 52.1408 41.2499 53.8803 41.2499 55.691V68.4375C41.2499 70.9611 39.2017 73 36.6666 73C34.1314 73 32.0833 70.9611 32.0833 68.4375V56.6463L21.4986 46.1098C19.2356 43.857 18.3189 40.6063 19.078 37.5123L21.9999 25.5357C23.1887 20.6738 28.1158 17.7082 32.9856 18.9201C35.7069 19.6045 38.0846 21.2584 39.6314 23.5824L43.6991 29.6562H48.1249V26.2344C48.1249 24.3381 49.6575 22.8125 51.5624 22.8125C53.4674 22.8125 54.9999 24.3381 54.9999 26.2344V69.5781C54.9999 71.4744 53.4674 73 51.5624 73C49.6575 73 48.1249 71.4744 48.1249 69.5781V38.7812H42.4817C40.19 38.7812 38.0416 37.6406 36.7668 35.7301L34.8619 32.8785L34.8476 32.8928ZM11.6158 67.2826L16.8007 47.6211C17.2304 48.2199 17.7174 48.7902 18.2473 49.3178L24.2486 55.2918L20.4674 69.5924C19.8228 72.0305 17.3163 73.4848 14.8671 72.8432C12.4179 72.2016 10.9569 69.7064 11.6015 67.2684L11.6158 67.2826ZM19.565 17.9506L14.5234 37.9971C14.0937 39.7223 12.3892 40.8344 10.6275 40.5492L3.76684 39.4086C1.76164 39.0807 0.486896 37.0846 1.01684 35.1312L4.56893 22.0996C5.9296 17.1379 10.4556 13.6875 15.6262 13.6875H16.2278C18.4622 13.6875 20.1093 15.7834 19.565 17.9363V17.9506Z" fill="#7AA95C"/>
</g>
<defs>
<clipPath id="clip0_114_151">
<rect width="55" height="73" fill="white"/>
</clipPath>
</defs>
</svg>
