<svg width="41" height="41" viewBox="0 0 41 41" fill="none" xmlns="http://www.w3.org/2000/svg">
<path d="M20.5 1.8418C10.202 1.8418 1.8418 10.202 1.8418 20.5C1.8418 30.798 10.202 39.1582 20.5 39.1582C28.7561 39.1582 35.7629 33.785 38.2213 26.3457H36.6998C34.3055 32.9762 27.9633 37.7168 20.5 37.7168C10.9867 37.7168 3.2832 30.0133 3.2832 20.5C3.2832 10.9867 10.9867 3.2832 20.5 3.2832C27.9633 3.2832 34.3055 8.02383 36.6998 14.6543H38.2213C35.7629 7.21664 28.7561 1.8418 20.5 1.8418ZM19.7793 5.86332C18.498 5.92498 17.2648 6.15 16.0957 6.51756V28.748H19.7793V5.86332ZM21.2207 5.86332V17.2168H24.9043V6.51756C23.7352 6.15 22.502 5.92498 21.2207 5.86332ZM14.6543 7.05568C13.309 7.64025 12.0678 8.42422 10.9707 9.36113V9.5293H14.6543V7.05568ZM26.3457 7.05568V24.9043H30.0293V9.36113C28.9322 8.42422 27.691 7.64025 26.3457 7.05568ZM9.5293 10.7785C7.23666 13.365 5.8457 16.7684 5.8457 20.5C5.8457 24.2316 7.23666 27.635 9.5293 30.2215V23.0945C8.75254 22.4939 8.24805 21.549 8.24805 20.5C8.24805 19.451 8.75254 18.5061 9.5293 17.9055V10.7785ZM31.4707 10.7785V30.2215C32.4877 29.0764 33.3205 27.7711 33.9451 26.3457H32.9121V14.6543H33.9451C33.3205 13.2289 32.4877 11.9236 31.4707 10.7785ZM10.9707 10.9707V17.2648C11.1549 17.2328 11.3391 17.2168 11.5312 17.2168C12.9807 17.2168 14.2219 18.1777 14.6543 19.491V10.9707H10.9707ZM34.3535 16.0957V19.7793H38.0371V16.0957H34.3535ZM11.5312 18.6582C10.5062 18.6582 9.68945 19.475 9.68945 20.5C9.68945 21.525 10.5062 22.3418 11.5312 22.3418C12.5563 22.3418 13.373 21.525 13.373 20.5C13.373 19.475 12.5563 18.6582 11.5312 18.6582ZM21.2207 18.6582V35.1383C22.502 35.0742 23.7352 34.85 24.9043 34.4816V18.6582H21.2207ZM34.3535 21.2207V24.9043H38.0371V21.2207H34.3535ZM14.6543 21.509C14.2219 22.8223 12.9807 23.7832 11.5312 23.7832C11.3391 23.7832 11.1549 23.7672 10.9707 23.7352V31.6389C12.0678 32.5758 13.309 33.3605 14.6543 33.9451V21.509ZM26.3457 26.3457V33.9451C27.691 33.3605 28.9322 32.5758 30.0293 31.6389V26.3457H26.3457ZM16.0957 30.1895V34.4816C17.2648 34.85 18.498 35.0742 19.7793 35.1383V30.1895H16.0957Z" fill="#7AA95C"/>
</svg>
