<svg width="69" height="69" viewBox="0 0 69 69" fill="none" xmlns="http://www.w3.org/2000/svg">
<path d="M34.5 3.09961C17.1691 3.09961 3.09961 17.1691 3.09961 34.5C3.09961 51.8309 17.1691 65.9004 34.5 65.9004C48.3943 65.9004 60.1863 56.8576 64.3236 44.3379H61.7631C57.7336 55.4965 47.0602 63.4746 34.5 63.4746C18.4898 63.4746 5.52539 50.5102 5.52539 34.5C5.52539 18.4898 18.4898 5.52539 34.5 5.52539C47.0602 5.52539 57.7336 13.5035 61.7631 24.6621H64.3236C60.1863 12.1451 48.3943 3.09961 34.5 3.09961ZM33.2871 9.86754C31.1309 9.97131 29.0555 10.35 27.0879 10.9686V48.3809H33.2871V9.86754ZM35.7129 9.86754V28.9746H41.9121V10.9686C39.9445 10.35 37.8691 9.97131 35.7129 9.86754ZM24.6621 11.8742C22.398 12.858 20.3092 14.1773 18.4629 15.7541V16.0371H24.6621V11.8742ZM44.3379 11.8742V41.9121H50.5371V15.7541C48.6908 14.1773 46.602 12.858 44.3379 11.8742ZM16.0371 18.1395C12.1788 22.4924 9.83789 28.2199 9.83789 34.5C9.83789 40.7801 12.1788 46.5076 16.0371 50.8605V38.8664C14.7299 37.8557 13.8809 36.2654 13.8809 34.5C13.8809 32.7346 14.7299 31.1443 16.0371 30.1336V18.1395ZM52.9629 18.1395V50.8605C54.6744 48.9334 56.076 46.7367 57.1271 44.3379H55.3887V24.6621H57.1271C56.076 22.2633 54.6744 20.0666 52.9629 18.1395ZM18.4629 18.4629V29.0555C18.7729 29.0016 19.0828 28.9746 19.4062 28.9746C21.8455 28.9746 23.9344 30.5918 24.6621 32.802V18.4629H18.4629ZM57.8145 27.0879V33.2871H64.0137V27.0879H57.8145ZM19.4062 31.4004C17.6812 31.4004 16.3066 32.775 16.3066 34.5C16.3066 36.225 17.6812 37.5996 19.4062 37.5996C21.1313 37.5996 22.5059 36.225 22.5059 34.5C22.5059 32.775 21.1313 31.4004 19.4062 31.4004ZM35.7129 31.4004V59.1352C37.8691 59.0273 39.9445 58.65 41.9121 58.0301V31.4004H35.7129ZM57.8145 35.7129V41.9121H64.0137V35.7129H57.8145ZM24.6621 36.198C23.9344 38.4082 21.8455 40.0254 19.4062 40.0254C19.0828 40.0254 18.7729 39.9984 18.4629 39.9445V53.2459C20.3092 54.8227 22.398 56.1434 24.6621 57.1271V36.198ZM44.3379 44.3379V57.1271C46.602 56.1434 48.6908 54.8227 50.5371 53.2459V44.3379H44.3379ZM27.0879 50.8066V58.0301C29.0555 58.65 31.1309 59.0273 33.2871 59.1352V50.8066H27.0879Z" fill="black"/>
</svg>
