<svg width="40" height="40" viewBox="0 0 40 40" fill="none" xmlns="http://www.w3.org/2000/svg">
<path d="M11.6585 20.0002C11.6585 24.6018 15.4018 28.3452 20.0035 28.3452C24.6052 28.3452 28.3485 24.6018 28.3485 20.0002C28.3485 15.3985 24.6052 11.6552 20.0035 11.6552C15.4018 11.6552 11.6585 15.3985 11.6585 20.0002ZM18.3335 31.6668H21.6668V36.6668H18.3335V31.6668ZM18.3335 3.3335H21.6668V8.3335H18.3335V3.3335ZM3.3335 18.3335H8.3335V21.6668H3.3335V18.3335ZM31.6668 18.3335H36.6668V21.6668H31.6668V18.3335ZM9.39516 32.9635L7.0385 30.6068L10.5735 27.0718L12.9302 29.4285L9.39516 32.9635ZM27.0702 10.5735L30.6068 7.03683L32.9635 9.3935L29.4268 12.9302L27.0702 10.5735ZM10.5735 12.9318L7.0385 9.39516L9.39683 7.0385L12.9302 10.5752L10.5735 12.9318ZM32.9635 30.6068L30.6068 32.9635L27.0702 29.4268L29.4268 27.0702L32.9635 30.6068Z" fill="black"/>
</svg>
