<svg width="28" height="25" viewBox="0 0 28 25" fill="none" xmlns="http://www.w3.org/2000/svg">
<g filter="url(#filter0_i_673_300)">
<path d="M5.17661 15.8001C4.926 15.8089 4.68353 15.9095 4.44919 16.0685L4.04646 16.6395L3.39122 17.5692L2.41148 18.9584L1.59528 20.2912L1.54716 20.3593C1.32494 20.7068 1.02777 21.371 1.55391 21.6291C1.98988 21.8132 2.32165 21.9133 2.63768 21.582L6.19824 16.5324C6.09838 16.1557 5.55545 15.7869 5.17659 15.8002L5.17661 15.8001Z" fill="black" style="mix-blend-mode:soft-light"/>
<path d="M3.89965 15.3468C3.91366 15.3021 3.92889 15.2569 3.93651 15.2166C4.05108 14.6176 3.22088 14.422 2.84964 14.4921C2.20822 14.6134 1.65613 15.1659 1.17811 15.7526C0.834911 16.1738 -0.348542 17.7417 0.10143 18.6709C0.35342 19.1903 0.962649 19.3858 1.27292 19.0712L3.89965 15.3468Z" fill="black" style="mix-blend-mode:soft-light"/>
<path d="M6.79173 24.9755C8.12782 25.218 8.75418 23.6043 9.34766 22.638L7.32881 21.7223C6.63582 22.6967 5.02264 24.3765 6.79178 24.9755H6.79173Z" fill="black" style="mix-blend-mode:soft-light"/>
<path d="M6.51911 21.3819C6.34535 21.2948 6.22108 21.2285 6.10513 21.1672L5.77387 21.017L5.31902 20.8109L5.45229 20.4791C5.88946 19.3952 6.84137 18.1856 8.23005 18.5944C8.44223 17.9265 7.83008 17.8916 7.39306 17.6991C7.06094 17.6292 6.79857 17.3145 6.22157 18.0139L5.80482 18.5478C5.77384 18.5944 5.74182 18.642 5.71067 18.6891C5.74199 18.642 5.77384 18.5944 5.80465 18.548L4.82872 19.932C4.82751 19.9334 4.82612 19.9352 4.82491 19.9369L3.589 21.6896C3.42666 21.9674 3.29426 22.1487 3.19647 22.4199C2.90797 22.9007 2.93427 23.4343 3.58121 23.7664C4.00091 23.9762 4.57791 24.0461 4.95589 23.5984L6.33819 21.638L6.51911 21.3819Z" fill="black" style="mix-blend-mode:soft-light"/>
<path d="M3.05655 13.8174C3.98126 13.8908 4.49043 14.0069 4.53181 15.1005C4.96587 15.0413 5.94667 14.9378 6.3122 15.6897C6.20732 15.1367 5.78451 11.9906 6.32379 11.96C6.99583 11.9801 6.91585 13.8501 6.92454 14.2771C6.96434 16.3235 7.71615 17.4929 9.85516 18.109C9.62705 18.4532 9.58482 18.5377 8.94981 19.348C7.80268 18.8655 6.82574 19.3914 6.34302 20.3539L6.79144 20.5572L7.82763 21.0268L9.37572 21.7291L10.263 22.1319C10.3667 22.1507 10.4721 22.1682 10.5801 22.184C11.0382 22.2496 12.4989 19.9977 12.866 19.4657C13.4502 18.6183 14.1533 17.4275 14.2025 16.8127C14.2881 15.7386 13.1469 14.5351 12.5723 13.5526C11.9972 12.5689 11.0334 11.3605 10.8518 10.3833C10.5247 8.62306 10.6994 7.25804 10.8409 5.19777L3.78431 5.19777C3.92156 6.56416 4.08147 8.24796 3.75956 9.16851C3.48179 9.96309 3.10867 10.3199 2.21701 10.8096C1.62251 11.1069 1.30338 11.9651 1.10121 12.7374C0.87258 13.6069 0.870853 13.6598 0.62492 15.1896C1.25247 14.4996 1.93522 13.7283 3.05656 13.8172L3.05655 13.8174Z" fill="black" style="mix-blend-mode:soft-light"/>
</g>
<g filter="url(#filter1_i_673_300)">
<path d="M22.1544 9.19916C22.4051 9.19034 22.6475 9.08978 22.8819 8.93073L23.2846 8.35976L23.9398 7.43005L24.9196 6.04083L25.7358 4.70802L25.7839 4.64C26.0061 4.29247 26.3033 3.62823 25.7771 3.37019C25.3412 3.18605 25.0094 3.08601 24.6934 3.41727L21.1328 8.46682C21.2327 8.84359 21.7756 9.2124 22.1545 9.19906L22.1544 9.19916Z" fill="black" style="mix-blend-mode:soft-light"/>
<path d="M23.4324 9.65397C23.4184 9.69862 23.4031 9.74379 23.3955 9.78412C23.281 10.3831 24.1112 10.5787 24.4824 10.5086C25.1238 10.3873 25.6759 9.83485 26.1539 9.24815C26.4971 8.8269 27.6806 7.25903 27.2306 6.32985C26.9786 5.81045 26.3694 5.61488 26.0591 5.92954L23.4324 9.65397Z" fill="black" style="mix-blend-mode:soft-light"/>
<path d="M20.5403 0.0245041C19.2042 -0.217969 18.5779 1.39573 17.9844 2.362L20.0032 3.27771C20.6962 2.30334 22.3094 0.623521 20.5403 0.0245041H20.5403Z" fill="black" style="mix-blend-mode:soft-light"/>
<path d="M20.8129 3.61815C20.9867 3.7052 21.1109 3.77149 21.2269 3.83276L21.5582 3.98298L22.013 4.18911L21.8797 4.52088C21.4426 5.60483 20.4907 6.81442 19.102 6.40561C18.8898 7.07348 19.5019 7.10844 19.939 7.3009C20.2711 7.37082 20.5335 7.68547 21.1105 6.98609L21.5272 6.45216C21.5582 6.4056 21.5902 6.35801 21.6214 6.31093C21.59 6.35801 21.5582 6.4056 21.5274 6.45198L22.5033 5.06795C22.5045 5.06657 22.5059 5.06484 22.5071 5.06311L23.743 3.31041C23.9054 3.03263 24.0378 2.85127 24.1356 2.58007C24.4241 2.09926 24.3978 1.56569 23.7508 1.23357C23.3311 1.02381 22.7541 0.953888 22.3761 1.40162L20.9938 3.36198L20.8129 3.61815Z" fill="black" style="mix-blend-mode:soft-light"/>
<path d="M24.2745 11.1819C23.3498 11.1085 22.8406 10.9924 22.7992 9.89874C22.3652 9.95793 21.3844 10.0614 21.0189 9.3096C21.1237 9.86254 21.5465 13.0086 21.0073 13.0393C20.3352 13.0192 20.4152 11.1492 20.4065 10.7222C20.3667 8.67581 19.6149 7.5064 17.4759 6.89028C17.704 6.54604 17.7462 6.46158 18.3812 5.65126C19.5284 6.1338 20.5053 5.60782 20.988 4.64538L20.5396 4.44203L19.5034 3.97247L17.9553 3.27013L17.068 2.8674C16.9644 2.84854 16.8589 2.83106 16.751 2.81531C16.2928 2.74971 14.8321 5.00154 14.465 5.53357C13.8809 6.38092 13.1777 7.57182 13.1286 8.18656C13.0429 9.26063 14.1841 10.4642 14.7587 11.4467C15.3338 12.4304 16.2977 13.6388 16.4792 14.6159C16.8063 16.3762 16.6317 17.7412 16.4901 19.8015H23.5467C23.4095 18.4351 23.2496 16.7513 23.5715 15.8308C23.8493 15.0362 24.2224 14.6793 25.114 14.1897C25.7085 13.8924 26.0277 13.0341 26.2298 12.2619C26.4585 11.3924 26.4602 11.3394 26.7061 9.80962C26.0786 10.4996 25.3958 11.271 24.2745 11.1821L24.2745 11.1819Z" fill="black" style="mix-blend-mode:soft-light"/>
</g>
<defs>
<filter id="filter0_i_673_300" x="0.000976562" y="5.19775" width="16.2061" height="21.8022" filterUnits="userSpaceOnUse" color-interpolation-filters="sRGB">
<feFlood flood-opacity="0" result="BackgroundImageFix"/>
<feBlend mode="normal" in="SourceGraphic" in2="BackgroundImageFix" result="shape"/>
<feColorMatrix in="SourceAlpha" type="matrix" values="0 0 0 0 0 0 0 0 0 0 0 0 0 0 0 0 0 0 127 0" result="hardAlpha"/>
<feOffset dx="2" dy="2"/>
<feGaussianBlur stdDeviation="1"/>
<feComposite in2="hardAlpha" operator="arithmetic" k2="-1" k3="1"/>
<feColorMatrix type="matrix" values="0 0 0 0 0 0 0 0 0 0 0 0 0 0 0 0 0 0 0.5 0"/>
<feBlend mode="normal" in2="shape" result="effect1_innerShadow_673_300"/>
</filter>
<filter id="filter1_i_673_300" x="13.124" y="0" width="16.207" height="21.8015" filterUnits="userSpaceOnUse" color-interpolation-filters="sRGB">
<feFlood flood-opacity="0" result="BackgroundImageFix"/>
<feBlend mode="normal" in="SourceGraphic" in2="BackgroundImageFix" result="shape"/>
<feColorMatrix in="SourceAlpha" type="matrix" values="0 0 0 0 0 0 0 0 0 0 0 0 0 0 0 0 0 0 127 0" result="hardAlpha"/>
<feOffset dx="2" dy="2"/>
<feGaussianBlur stdDeviation="1"/>
<feComposite in2="hardAlpha" operator="arithmetic" k2="-1" k3="1"/>
<feColorMatrix type="matrix" values="0 0 0 0 0 0 0 0 0 0 0 0 0 0 0 0 0 0 0.5 0"/>
<feBlend mode="normal" in2="shape" result="effect1_innerShadow_673_300"/>
</filter>
</defs>
</svg>
