<svg width="69" height="67" viewBox="0 0 69 67" fill="none" xmlns="http://www.w3.org/2000/svg">
<path d="M9.34383 53.6L15.7407 39.6416C16.2199 38.618 16.9271 37.8038 17.8625 37.1989C18.7978 36.5941 19.8395 36.2916 20.9876 36.2916H25.8751L30.1876 25.8229C30.6188 24.7528 31.3136 23.9041 32.272 23.2769C33.2303 22.6497 34.3084 22.3352 35.5063 22.3333H47.4376C48.7313 22.3333 49.8813 22.7055 50.8876 23.45C51.8938 24.1944 52.5886 25.1715 52.972 26.3812L61.1657 54.2979C61.6928 56.066 61.3813 57.6944 60.2313 59.1833C59.0813 60.6722 57.548 61.4166 55.6313 61.4166H14.5907C12.4824 61.4166 10.8647 60.5791 9.73771 58.9041C8.61071 57.2291 8.47942 55.4611 9.34383 53.6ZM14.5907 55.8333H55.6313L47.4376 27.9166H35.5063L29.7563 41.875H20.9876L14.5907 55.8333ZM37.3751 11.1666V5.5833C37.3751 4.79233 37.6511 4.12884 38.2031 3.59284C38.7551 3.05684 39.4374 2.78977 40.2501 2.79164C41.0647 2.79164 41.748 3.05964 42.3 3.59564C42.852 4.13164 43.127 4.79419 43.1251 5.5833V11.1666C43.1251 11.9576 42.8491 12.6211 42.2971 13.1571C41.7451 13.6931 41.0628 13.9602 40.2501 13.9583C39.4355 13.9583 38.7522 13.6903 38.2002 13.1543C37.6482 12.6183 37.3732 11.9557 37.3751 11.1666ZM52.397 17.2385C51.8699 17.7503 51.199 18.0062 50.3845 18.0062C49.5699 18.0062 48.899 17.7503 48.372 17.2385C47.8449 16.7267 47.5813 16.0753 47.5813 15.2843C47.5813 14.4934 47.8449 13.842 48.372 13.3302L52.5407 9.28226C53.0678 8.77046 53.7386 8.51455 54.5532 8.51455C55.3678 8.51455 56.0386 8.77046 56.5657 9.28226C57.0928 9.79407 57.3563 10.4455 57.3563 11.2364C57.3563 12.0274 57.0928 12.6788 56.5657 13.1906L52.397 17.2385ZM28.1032 17.2385L23.9345 13.1906C23.4074 12.6788 23.1553 12.0274 23.1783 11.2364C23.2013 10.4455 23.4773 9.79407 24.0063 9.28226C24.5334 8.77046 25.2043 8.51455 26.0188 8.51455C26.8334 8.51455 27.5042 8.77046 28.0313 9.28226L32.1282 13.3302C32.6553 13.842 32.9188 14.4934 32.9188 15.2843C32.9188 16.0753 32.6553 16.7267 32.1282 17.2385C31.6011 17.7503 30.9303 18.0062 30.1157 18.0062C29.3011 18.0062 28.6303 17.7503 28.1032 17.2385Z" fill="#7AA95C"/>
</svg>
