<svg width="91" height="69" viewBox="0 0 91 69" fill="none" xmlns="http://www.w3.org/2000/svg">
<g filter="url(#filter0_i_603_1217)">
<path d="M45.4573 0L2.56098 15L6.40244 18L2.56098 29L5.12195 37.5L2.56098 42.5L5.12195 46.5L0 52L3.84146 55.5L5 58L27.1209 66.3797V60.2032L54.035 69V62.6364H76.368L67.7784 43.5455L90.5 31L70.5 24L82 7.5L44.3001 12.4759L45.4573 0Z" fill="#A81616"/>
</g>
<g filter="url(#filter1_i_603_1217)">
<path d="M43.5364 2L6.40222 15.0383L8.9632 17L4.37072 29.5L6.40222 38.5L4.37072 42.4091L5.42428 46.5L1.28027 51.5L6 57L25.53 62.5249V57.0838L49.4537 64.8333V59.2273H69.3052L61.67 42.4091L85 31.5L67.7782 24.9314L77.9584 10.4216L40.8004 15.0383L43.5364 2Z" fill="#F0732C"/>
</g>
<defs>
<filter id="filter0_i_603_1217" x="0" y="0" width="90.5" height="73" filterUnits="userSpaceOnUse" color-interpolation-filters="sRGB">
<feFlood flood-opacity="0" result="BackgroundImageFix"/>
<feBlend mode="normal" in="SourceGraphic" in2="BackgroundImageFix" result="shape"/>
<feColorMatrix in="SourceAlpha" type="matrix" values="0 0 0 0 0 0 0 0 0 0 0 0 0 0 0 0 0 0 127 0" result="hardAlpha"/>
<feOffset dy="4"/>
<feGaussianBlur stdDeviation="2"/>
<feComposite in2="hardAlpha" operator="arithmetic" k2="-1" k3="1"/>
<feColorMatrix type="matrix" values="0 0 0 0 0 0 0 0 0 0 0 0 0 0 0 0 0 0 0.25 0"/>
<feBlend mode="normal" in2="shape" result="effect1_innerShadow_603_1217"/>
</filter>
<filter id="filter1_i_603_1217" x="1.28027" y="2" width="83.7197" height="66.8333" filterUnits="userSpaceOnUse" color-interpolation-filters="sRGB">
<feFlood flood-opacity="0" result="BackgroundImageFix"/>
<feBlend mode="normal" in="SourceGraphic" in2="BackgroundImageFix" result="shape"/>
<feColorMatrix in="SourceAlpha" type="matrix" values="0 0 0 0 0 0 0 0 0 0 0 0 0 0 0 0 0 0 127 0" result="hardAlpha"/>
<feOffset dy="4"/>
<feGaussianBlur stdDeviation="2"/>
<feComposite in2="hardAlpha" operator="arithmetic" k2="-1" k3="1"/>
<feColorMatrix type="matrix" values="0 0 0 0 0 0 0 0 0 0 0 0 0 0 0 0 0 0 0.25 0"/>
<feBlend mode="normal" in2="shape" result="effect1_innerShadow_603_1217"/>
</filter>
</defs>
</svg>
