<svg width="19" height="27" viewBox="0 0 19 27" fill="none" xmlns="http://www.w3.org/2000/svg">
<g filter="url(#filter0_i_603_1253)">
<path d="M11.9725 12.4864C12.3047 12.4747 12.6261 12.3414 12.9367 12.1306L13.4706 11.3737L14.3392 10.1413L15.6379 8.29971L16.7199 6.53292L16.7837 6.44276C17.0783 5.98207 17.4722 5.10155 16.7747 4.75949C16.1968 4.51539 15.757 4.38277 15.3381 4.82189L10.6182 11.5156C10.7505 12.0151 11.4703 12.504 11.9725 12.4863L11.9725 12.4864Z" fill="black" style="mix-blend-mode:soft-light"/>
<path d="M13.6657 13.0884C13.6471 13.1476 13.6269 13.2075 13.6168 13.261C13.4649 14.055 14.5654 14.3143 15.0576 14.2214C15.9078 14.0605 16.6397 13.3282 17.2734 12.5505C17.7283 11.9921 19.2971 9.91369 18.7006 8.68196C18.3666 7.99344 17.559 7.73419 17.1477 8.1513L13.6657 13.0884Z" fill="black" style="mix-blend-mode:soft-light"/>
<path d="M9.83249 0.324109C8.06136 0.00268424 7.23106 2.14182 6.44434 3.42271L9.12054 4.63659C10.0392 3.34495 12.1776 1.11817 9.83243 0.324109H9.83249Z" fill="black" style="mix-blend-mode:soft-light"/>
<path d="M10.1937 5.08725C10.4241 5.20265 10.5888 5.29052 10.7425 5.37174L11.1816 5.57087L11.7846 5.84412L11.6079 6.28392C11.0284 7.72081 9.76653 9.32426 7.92568 8.78234C7.64441 9.66767 8.45588 9.71401 9.0352 9.96914C9.47546 10.0618 9.82327 10.4789 10.5881 9.55182L11.1406 8.84404C11.1817 8.78232 11.2241 8.71923 11.2654 8.65683C11.2239 8.71923 11.1817 8.78232 11.1408 8.84381L12.4345 7.00912C12.4361 7.00729 12.438 7.00499 12.4396 7.0027L14.0779 4.67931C14.2931 4.31108 14.4686 4.07066 14.5982 3.71116C14.9807 3.0738 14.9458 2.36649 14.0882 1.92623C13.5319 1.64817 12.767 1.55548 12.2659 2.149L10.4335 4.74767L10.1937 5.08725Z" fill="black" style="mix-blend-mode:soft-light"/>
<path d="M14.7831 15.1147C13.5573 15.0174 12.8824 14.8635 12.8275 13.4138C12.2521 13.4922 10.952 13.6294 10.4674 12.6328C10.6064 13.3658 11.1669 17.5362 10.452 17.5769C9.56119 17.5503 9.6672 15.0714 9.65569 14.5054C9.60292 11.7926 8.60632 10.2424 5.77084 9.42571C6.07321 8.96939 6.1292 8.85743 6.97097 7.78326C8.49161 8.42291 9.78666 7.72567 10.4266 6.44986L9.83212 6.18029L8.45855 5.55784L6.40638 4.62682L5.23015 4.09295C5.09272 4.06795 4.953 4.04477 4.80985 4.0239C4.20255 3.93694 2.26621 6.92198 1.77961 7.62724C1.00528 8.7505 0.07314 10.3292 0.00800583 11.1441C-0.105559 12.5679 1.40725 14.1633 2.16895 15.4657C2.93129 16.7698 4.20895 18.3716 4.44964 19.6669C4.88325 22.0003 4.65176 23.8098 4.46409 26.5409H13.8184C13.6365 24.7296 13.4245 22.4976 13.8512 21.2773C14.2194 20.224 14.714 19.751 15.896 19.1019C16.6841 18.7078 17.1072 17.57 17.3751 16.5463C17.6782 15.3937 17.6805 15.3235 18.0065 13.2956C17.1746 14.2103 16.2696 15.2328 14.7831 15.115L14.7831 15.1147Z" fill="black" style="mix-blend-mode:soft-light"/>
</g>
<defs>
<filter id="filter0_i_603_1253" x="0.00195312" y="0.291626" width="20.832" height="28.2493" filterUnits="userSpaceOnUse" color-interpolation-filters="sRGB">
<feFlood flood-opacity="0" result="BackgroundImageFix"/>
<feBlend mode="normal" in="SourceGraphic" in2="BackgroundImageFix" result="shape"/>
<feColorMatrix in="SourceAlpha" type="matrix" values="0 0 0 0 0 0 0 0 0 0 0 0 0 0 0 0 0 0 127 0" result="hardAlpha"/>
<feOffset dx="2" dy="2"/>
<feGaussianBlur stdDeviation="1"/>
<feComposite in2="hardAlpha" operator="arithmetic" k2="-1" k3="1"/>
<feColorMatrix type="matrix" values="0 0 0 0 0 0 0 0 0 0 0 0 0 0 0 0 0 0 0.5 0"/>
<feBlend mode="normal" in2="shape" result="effect1_innerShadow_603_1253"/>
</filter>
</defs>
</svg>
