<svg width="19" height="27" viewBox="0 0 19 27" fill="none" xmlns="http://www.w3.org/2000/svg">
<g filter="url(#filter0_i_603_1259)">
<path d="M11.9705 14.054C12.3027 14.0657 12.6241 14.199 12.9348 14.4098L13.4686 15.1667L14.3372 16.3991L15.636 18.2407L16.7179 20.0075L16.7817 20.0976C17.0763 20.5583 17.4702 21.4389 16.7728 21.7809C16.1949 22.025 15.7551 22.1576 15.3361 21.7185L10.6162 15.0248C10.7486 14.5253 11.4683 14.0364 11.9705 14.0541L11.9705 14.054Z" fill="black" style="mix-blend-mode:soft-light"/>
<path d="M13.6637 13.452C13.6451 13.3928 13.6249 13.3329 13.6148 13.2794C13.463 12.4854 14.5635 12.2261 15.0556 12.319C15.9059 12.4799 16.6377 13.2122 17.2714 13.9899C17.7264 14.5483 19.2951 16.6267 18.6987 17.8584C18.3646 18.547 17.557 18.8062 17.1457 18.3891L13.6637 13.452Z" fill="black" style="mix-blend-mode:soft-light"/>
<path d="M9.83054 26.2163C8.0594 26.5377 7.2291 24.3986 6.44238 23.1177L9.11858 21.9038C10.0372 23.1955 12.1757 25.4222 9.83048 26.2163H9.83054Z" fill="black" style="mix-blend-mode:soft-light"/>
<path d="M10.1918 21.4532C10.4221 21.3378 10.5868 21.2499 10.7405 21.1687L11.1797 20.9695L11.7826 20.6963L11.606 20.2565C11.0264 18.8196 9.76458 17.2161 7.92373 17.7581C7.64245 16.8727 8.45392 16.8264 9.03324 16.5713C9.47351 16.4786 9.82131 16.0615 10.5862 16.9886L11.1386 17.6964C11.1797 17.7581 11.2221 17.8212 11.2634 17.8836C11.2219 17.8212 11.1797 17.7581 11.1389 17.6966L12.4326 19.5313C12.4342 19.5331 12.436 19.5354 12.4376 19.5377L14.0759 21.8611C14.2911 22.2293 14.4667 22.4697 14.5963 22.8292C14.9787 23.4666 14.9439 24.1739 14.0863 24.6142C13.5299 24.8922 12.765 24.9849 12.264 24.3914L10.4316 21.7927L10.1918 21.4532Z" fill="black" style="mix-blend-mode:soft-light"/>
<path d="M14.7812 11.4257C13.5554 11.523 12.8804 11.6769 12.8256 13.1267C12.2502 13.0482 10.95 12.911 10.4655 13.9076C10.6045 13.1746 11.165 9.00417 10.4501 8.96353C9.55924 8.99014 9.66525 11.469 9.65374 12.0351C9.60097 14.7478 8.60436 16.298 5.76888 17.1147C6.07126 17.571 6.12724 17.683 6.96902 18.7571C8.48966 18.1175 9.78471 18.8147 10.4246 20.0905L9.83017 20.3601L8.45659 20.9826L6.40443 21.9136L5.22819 22.4475C5.09077 22.4725 4.95105 22.4956 4.80789 22.5165C4.2006 22.6035 2.26425 19.6184 1.77766 18.9132C1.00333 17.7899 0.0711869 16.2112 0.00605271 15.3963C-0.107512 13.9725 1.40529 12.3771 2.16699 11.0747C2.92934 9.77065 4.207 8.16878 4.44769 6.8735C4.8813 4.54006 4.64981 2.73058 4.46214 -0.00053653H13.8164C13.6345 1.81077 13.4225 4.04283 13.8493 5.26312C14.2175 6.31642 14.7121 6.78945 15.8941 7.4385C16.6821 7.83265 17.1052 8.97036 17.3732 9.99407C17.6763 11.1467 17.6786 11.2169 18.0046 13.2448C17.1727 12.3301 16.2676 11.3076 14.7812 11.4254L14.7812 11.4257Z" fill="black" style="mix-blend-mode:soft-light"/>
</g>
<defs>
<filter id="filter0_i_603_1259" x="0" y="-0.000549316" width="20.832" height="28.2493" filterUnits="userSpaceOnUse" color-interpolation-filters="sRGB">
<feFlood flood-opacity="0" result="BackgroundImageFix"/>
<feBlend mode="normal" in="SourceGraphic" in2="BackgroundImageFix" result="shape"/>
<feColorMatrix in="SourceAlpha" type="matrix" values="0 0 0 0 0 0 0 0 0 0 0 0 0 0 0 0 0 0 127 0" result="hardAlpha"/>
<feOffset dx="2" dy="2"/>
<feGaussianBlur stdDeviation="1"/>
<feComposite in2="hardAlpha" operator="arithmetic" k2="-1" k3="1"/>
<feColorMatrix type="matrix" values="0 0 0 0 0 0 0 0 0 0 0 0 0 0 0 0 0 0 0.5 0"/>
<feBlend mode="normal" in2="shape" result="effect1_innerShadow_603_1259"/>
</filter>
</defs>
</svg>
